<mxfile host="Electron" modified="2023-12-18T12:58:37.142Z" agent="Mozilla/5.0 (Windows NT 10.0; Win64; x64) AppleWebKit/537.36 (KHTML, like Gecko) draw.io/22.1.2 Chrome/114.0.5735.289 Electron/25.9.4 Safari/537.36" etag="wEiJn0ch6maKauBmK6d-" version="22.1.2" type="device">
  <diagram id="C5RBs43oDa-KdzZeNtuy" name="Page-1">
    <mxGraphModel dx="1538" dy="887" grid="1" gridSize="10" guides="1" tooltips="1" connect="1" arrows="1" fold="1" page="1" pageScale="1" pageWidth="827" pageHeight="1169" math="0" shadow="0">
      <root>
        <mxCell id="WIyWlLk6GJQsqaUBKTNV-0" />
        <mxCell id="WIyWlLk6GJQsqaUBKTNV-1" parent="WIyWlLk6GJQsqaUBKTNV-0" />
        <mxCell id="NFKL7sT9jwqzwIPx9qcK-0" value="&lt;font size=&quot;1&quot; face=&quot;Onest, Roboto, San Francisco, Helvetica Neue, Helvetica, Arial&quot; color=&quot;#2c2d30&quot;&gt;&lt;span style=&quot;background-color: rgb(255, 255, 255); font-size: 20px;&quot;&gt;Блок-схема представляет собой графическое отображение отдельно выведенного метода GetArrayThreeSymbol, который является основной содержательной частью всей программы.&lt;/span&gt;&lt;/font&gt;" style="text;whiteSpace=wrap;html=1;" vertex="1" parent="WIyWlLk6GJQsqaUBKTNV-1">
          <mxGeometry x="10" width="810" height="110" as="geometry" />
        </mxCell>
        <mxCell id="NFKL7sT9jwqzwIPx9qcK-47" style="edgeStyle=orthogonalEdgeStyle;rounded=0;orthogonalLoop=1;jettySize=auto;html=1;entryX=0.5;entryY=0;entryDx=0;entryDy=0;" edge="1" parent="WIyWlLk6GJQsqaUBKTNV-1" source="NFKL7sT9jwqzwIPx9qcK-1" target="NFKL7sT9jwqzwIPx9qcK-4">
          <mxGeometry relative="1" as="geometry" />
        </mxCell>
        <mxCell id="NFKL7sT9jwqzwIPx9qcK-1" value="Start" style="ellipse;whiteSpace=wrap;html=1;" vertex="1" parent="WIyWlLk6GJQsqaUBKTNV-1">
          <mxGeometry x="280" y="120" width="120" height="80" as="geometry" />
        </mxCell>
        <mxCell id="NFKL7sT9jwqzwIPx9qcK-48" style="edgeStyle=orthogonalEdgeStyle;rounded=0;orthogonalLoop=1;jettySize=auto;html=1;exitX=0.5;exitY=1;exitDx=0;exitDy=0;entryX=0.5;entryY=0;entryDx=0;entryDy=0;" edge="1" parent="WIyWlLk6GJQsqaUBKTNV-1" source="NFKL7sT9jwqzwIPx9qcK-4" target="NFKL7sT9jwqzwIPx9qcK-5">
          <mxGeometry relative="1" as="geometry" />
        </mxCell>
        <mxCell id="NFKL7sT9jwqzwIPx9qcK-4" value="count = 0" style="rounded=0;whiteSpace=wrap;html=1;" vertex="1" parent="WIyWlLk6GJQsqaUBKTNV-1">
          <mxGeometry x="280" y="260" width="120" height="60" as="geometry" />
        </mxCell>
        <mxCell id="NFKL7sT9jwqzwIPx9qcK-15" style="edgeStyle=orthogonalEdgeStyle;rounded=0;orthogonalLoop=1;jettySize=auto;html=1;exitX=0.5;exitY=1;exitDx=0;exitDy=0;entryX=0.5;entryY=0;entryDx=0;entryDy=0;" edge="1" parent="WIyWlLk6GJQsqaUBKTNV-1" source="NFKL7sT9jwqzwIPx9qcK-5" target="NFKL7sT9jwqzwIPx9qcK-6">
          <mxGeometry relative="1" as="geometry" />
        </mxCell>
        <mxCell id="NFKL7sT9jwqzwIPx9qcK-21" style="edgeStyle=orthogonalEdgeStyle;rounded=0;orthogonalLoop=1;jettySize=auto;html=1;" edge="1" parent="WIyWlLk6GJQsqaUBKTNV-1" source="NFKL7sT9jwqzwIPx9qcK-5" target="NFKL7sT9jwqzwIPx9qcK-22">
          <mxGeometry relative="1" as="geometry">
            <mxPoint x="570" y="480" as="targetPoint" />
          </mxGeometry>
        </mxCell>
        <mxCell id="NFKL7sT9jwqzwIPx9qcK-5" value="i = 0, array.Length, i+=1" style="shape=hexagon;perimeter=hexagonPerimeter2;whiteSpace=wrap;html=1;fixedSize=1;" vertex="1" parent="WIyWlLk6GJQsqaUBKTNV-1">
          <mxGeometry x="270" y="350" width="140" height="90" as="geometry" />
        </mxCell>
        <mxCell id="NFKL7sT9jwqzwIPx9qcK-14" style="edgeStyle=orthogonalEdgeStyle;rounded=0;orthogonalLoop=1;jettySize=auto;html=1;exitX=0.5;exitY=1;exitDx=0;exitDy=0;entryX=0.5;entryY=0;entryDx=0;entryDy=0;" edge="1" parent="WIyWlLk6GJQsqaUBKTNV-1" source="NFKL7sT9jwqzwIPx9qcK-6" target="NFKL7sT9jwqzwIPx9qcK-7">
          <mxGeometry relative="1" as="geometry" />
        </mxCell>
        <mxCell id="NFKL7sT9jwqzwIPx9qcK-6" value="symbol = array[i]" style="rounded=0;whiteSpace=wrap;html=1;" vertex="1" parent="WIyWlLk6GJQsqaUBKTNV-1">
          <mxGeometry x="280" y="480" width="120" height="60" as="geometry" />
        </mxCell>
        <mxCell id="NFKL7sT9jwqzwIPx9qcK-9" style="edgeStyle=orthogonalEdgeStyle;rounded=0;orthogonalLoop=1;jettySize=auto;html=1;exitX=0;exitY=0.5;exitDx=0;exitDy=0;entryX=0.5;entryY=0;entryDx=0;entryDy=0;" edge="1" parent="WIyWlLk6GJQsqaUBKTNV-1" source="NFKL7sT9jwqzwIPx9qcK-7" target="NFKL7sT9jwqzwIPx9qcK-8">
          <mxGeometry relative="1" as="geometry" />
        </mxCell>
        <mxCell id="NFKL7sT9jwqzwIPx9qcK-7" value="symbol.Length &amp;lt; =3" style="rhombus;whiteSpace=wrap;html=1;" vertex="1" parent="WIyWlLk6GJQsqaUBKTNV-1">
          <mxGeometry x="275" y="570" width="130" height="120" as="geometry" />
        </mxCell>
        <mxCell id="NFKL7sT9jwqzwIPx9qcK-11" style="edgeStyle=orthogonalEdgeStyle;rounded=0;orthogonalLoop=1;jettySize=auto;html=1;exitX=0.5;exitY=1;exitDx=0;exitDy=0;entryX=0;entryY=0.5;entryDx=0;entryDy=0;" edge="1" parent="WIyWlLk6GJQsqaUBKTNV-1" source="NFKL7sT9jwqzwIPx9qcK-8" target="NFKL7sT9jwqzwIPx9qcK-5">
          <mxGeometry relative="1" as="geometry">
            <mxPoint x="280" y="510" as="targetPoint" />
            <Array as="points">
              <mxPoint x="200" y="830" />
              <mxPoint x="100" y="830" />
              <mxPoint x="100" y="395" />
            </Array>
          </mxGeometry>
        </mxCell>
        <mxCell id="NFKL7sT9jwqzwIPx9qcK-8" value="count+= 1" style="rounded=0;whiteSpace=wrap;html=1;" vertex="1" parent="WIyWlLk6GJQsqaUBKTNV-1">
          <mxGeometry x="140" y="690" width="120" height="60" as="geometry" />
        </mxCell>
        <mxCell id="NFKL7sT9jwqzwIPx9qcK-10" value="YES" style="text;html=1;align=center;verticalAlign=middle;resizable=0;points=[];autosize=1;strokeColor=none;fillColor=none;" vertex="1" parent="WIyWlLk6GJQsqaUBKTNV-1">
          <mxGeometry x="190" y="600" width="50" height="30" as="geometry" />
        </mxCell>
        <mxCell id="NFKL7sT9jwqzwIPx9qcK-13" value="NO" style="text;html=1;align=center;verticalAlign=middle;resizable=0;points=[];autosize=1;strokeColor=none;fillColor=none;" vertex="1" parent="WIyWlLk6GJQsqaUBKTNV-1">
          <mxGeometry x="420" y="600" width="40" height="30" as="geometry" />
        </mxCell>
        <mxCell id="NFKL7sT9jwqzwIPx9qcK-16" value="YES" style="text;html=1;align=center;verticalAlign=middle;resizable=0;points=[];autosize=1;strokeColor=none;fillColor=none;" vertex="1" parent="WIyWlLk6GJQsqaUBKTNV-1">
          <mxGeometry x="335" y="440" width="50" height="30" as="geometry" />
        </mxCell>
        <mxCell id="NFKL7sT9jwqzwIPx9qcK-20" style="edgeStyle=orthogonalEdgeStyle;rounded=0;orthogonalLoop=1;jettySize=auto;html=1;entryX=0;entryY=0.5;entryDx=0;entryDy=0;" edge="1" parent="WIyWlLk6GJQsqaUBKTNV-1" source="NFKL7sT9jwqzwIPx9qcK-7" target="NFKL7sT9jwqzwIPx9qcK-5">
          <mxGeometry relative="1" as="geometry">
            <mxPoint x="281" y="510" as="targetPoint" />
            <Array as="points">
              <mxPoint x="450" y="630" />
              <mxPoint x="450" y="830" />
              <mxPoint x="100" y="830" />
              <mxPoint x="100" y="395" />
            </Array>
          </mxGeometry>
        </mxCell>
        <mxCell id="NFKL7sT9jwqzwIPx9qcK-25" style="edgeStyle=orthogonalEdgeStyle;rounded=0;orthogonalLoop=1;jettySize=auto;html=1;exitX=0.5;exitY=1;exitDx=0;exitDy=0;entryX=0.5;entryY=0;entryDx=0;entryDy=0;" edge="1" parent="WIyWlLk6GJQsqaUBKTNV-1" source="NFKL7sT9jwqzwIPx9qcK-22" target="NFKL7sT9jwqzwIPx9qcK-24">
          <mxGeometry relative="1" as="geometry" />
        </mxCell>
        <mxCell id="NFKL7sT9jwqzwIPx9qcK-22" value="arrayThreeSymbol[count]&lt;br&gt;j = 0" style="rounded=0;whiteSpace=wrap;html=1;" vertex="1" parent="WIyWlLk6GJQsqaUBKTNV-1">
          <mxGeometry x="690" y="470" width="150" height="80" as="geometry" />
        </mxCell>
        <mxCell id="NFKL7sT9jwqzwIPx9qcK-23" value="NO" style="text;html=1;align=center;verticalAlign=middle;resizable=0;points=[];autosize=1;strokeColor=none;fillColor=none;" vertex="1" parent="WIyWlLk6GJQsqaUBKTNV-1">
          <mxGeometry x="430" y="370" width="40" height="30" as="geometry" />
        </mxCell>
        <mxCell id="NFKL7sT9jwqzwIPx9qcK-28" value="" style="edgeStyle=orthogonalEdgeStyle;rounded=0;orthogonalLoop=1;jettySize=auto;html=1;" edge="1" parent="WIyWlLk6GJQsqaUBKTNV-1" source="NFKL7sT9jwqzwIPx9qcK-24" target="NFKL7sT9jwqzwIPx9qcK-29">
          <mxGeometry relative="1" as="geometry">
            <mxPoint x="765" y="810" as="targetPoint" />
          </mxGeometry>
        </mxCell>
        <mxCell id="NFKL7sT9jwqzwIPx9qcK-40" style="edgeStyle=orthogonalEdgeStyle;rounded=0;orthogonalLoop=1;jettySize=auto;html=1;exitX=1;exitY=0.5;exitDx=0;exitDy=0;entryX=0.5;entryY=0;entryDx=0;entryDy=0;" edge="1" parent="WIyWlLk6GJQsqaUBKTNV-1" source="NFKL7sT9jwqzwIPx9qcK-24" target="NFKL7sT9jwqzwIPx9qcK-41">
          <mxGeometry relative="1" as="geometry">
            <mxPoint x="1010" y="750" as="targetPoint" />
          </mxGeometry>
        </mxCell>
        <mxCell id="NFKL7sT9jwqzwIPx9qcK-24" value="i = 0,&amp;nbsp; i &amp;lt; array.Length, i+=1" style="shape=hexagon;perimeter=hexagonPerimeter2;whiteSpace=wrap;html=1;fixedSize=1;" vertex="1" parent="WIyWlLk6GJQsqaUBKTNV-1">
          <mxGeometry x="672.5" y="620" width="185" height="100" as="geometry" />
        </mxCell>
        <mxCell id="NFKL7sT9jwqzwIPx9qcK-33" value="" style="edgeStyle=orthogonalEdgeStyle;rounded=0;orthogonalLoop=1;jettySize=auto;html=1;" edge="1" parent="WIyWlLk6GJQsqaUBKTNV-1" source="NFKL7sT9jwqzwIPx9qcK-29" target="NFKL7sT9jwqzwIPx9qcK-32">
          <mxGeometry relative="1" as="geometry" />
        </mxCell>
        <mxCell id="NFKL7sT9jwqzwIPx9qcK-29" value="symbol = array[i]" style="rounded=0;whiteSpace=wrap;html=1;" vertex="1" parent="WIyWlLk6GJQsqaUBKTNV-1">
          <mxGeometry x="705" y="780" width="120" height="60" as="geometry" />
        </mxCell>
        <mxCell id="NFKL7sT9jwqzwIPx9qcK-34" style="edgeStyle=orthogonalEdgeStyle;rounded=0;orthogonalLoop=1;jettySize=auto;html=1;exitX=0;exitY=0.5;exitDx=0;exitDy=0;" edge="1" parent="WIyWlLk6GJQsqaUBKTNV-1" source="NFKL7sT9jwqzwIPx9qcK-32" target="NFKL7sT9jwqzwIPx9qcK-35">
          <mxGeometry relative="1" as="geometry">
            <mxPoint x="650" y="1040" as="targetPoint" />
          </mxGeometry>
        </mxCell>
        <mxCell id="NFKL7sT9jwqzwIPx9qcK-37" style="edgeStyle=orthogonalEdgeStyle;rounded=0;orthogonalLoop=1;jettySize=auto;html=1;entryX=0;entryY=0.5;entryDx=0;entryDy=0;" edge="1" parent="WIyWlLk6GJQsqaUBKTNV-1" source="NFKL7sT9jwqzwIPx9qcK-32" target="NFKL7sT9jwqzwIPx9qcK-24">
          <mxGeometry relative="1" as="geometry">
            <mxPoint x="660" y="680" as="targetPoint" />
            <Array as="points">
              <mxPoint x="870" y="965" />
              <mxPoint x="870" y="1150" />
              <mxPoint x="500" y="1150" />
              <mxPoint x="500" y="670" />
            </Array>
          </mxGeometry>
        </mxCell>
        <mxCell id="NFKL7sT9jwqzwIPx9qcK-32" value="symbol.Length&amp;lt;=3" style="rhombus;whiteSpace=wrap;html=1;rounded=0;" vertex="1" parent="WIyWlLk6GJQsqaUBKTNV-1">
          <mxGeometry x="707.5" y="910" width="115" height="110" as="geometry" />
        </mxCell>
        <mxCell id="NFKL7sT9jwqzwIPx9qcK-36" style="edgeStyle=orthogonalEdgeStyle;rounded=0;orthogonalLoop=1;jettySize=auto;html=1;entryX=0;entryY=0.5;entryDx=0;entryDy=0;" edge="1" parent="WIyWlLk6GJQsqaUBKTNV-1" source="NFKL7sT9jwqzwIPx9qcK-35" target="NFKL7sT9jwqzwIPx9qcK-24">
          <mxGeometry relative="1" as="geometry">
            <Array as="points">
              <mxPoint x="630" y="1150" />
              <mxPoint x="500" y="1150" />
              <mxPoint x="500" y="670" />
            </Array>
          </mxGeometry>
        </mxCell>
        <mxCell id="NFKL7sT9jwqzwIPx9qcK-35" value="arrayThreeSymbol[j] = symbol&lt;br&gt;j+=1" style="rounded=0;whiteSpace=wrap;html=1;" vertex="1" parent="WIyWlLk6GJQsqaUBKTNV-1">
          <mxGeometry x="530" y="1050" width="200" height="60" as="geometry" />
        </mxCell>
        <mxCell id="NFKL7sT9jwqzwIPx9qcK-38" value="YES" style="text;html=1;align=center;verticalAlign=middle;resizable=0;points=[];autosize=1;strokeColor=none;fillColor=none;" vertex="1" parent="WIyWlLk6GJQsqaUBKTNV-1">
          <mxGeometry x="757" y="720" width="50" height="30" as="geometry" />
        </mxCell>
        <mxCell id="NFKL7sT9jwqzwIPx9qcK-39" value="NO" style="text;html=1;align=center;verticalAlign=middle;resizable=0;points=[];autosize=1;strokeColor=none;fillColor=none;" vertex="1" parent="WIyWlLk6GJQsqaUBKTNV-1">
          <mxGeometry x="880" y="640" width="40" height="30" as="geometry" />
        </mxCell>
        <mxCell id="NFKL7sT9jwqzwIPx9qcK-46" style="edgeStyle=orthogonalEdgeStyle;rounded=0;orthogonalLoop=1;jettySize=auto;html=1;entryX=0.5;entryY=0;entryDx=0;entryDy=0;exitX=0.501;exitY=0.839;exitDx=0;exitDy=0;exitPerimeter=0;" edge="1" parent="WIyWlLk6GJQsqaUBKTNV-1" source="NFKL7sT9jwqzwIPx9qcK-41" target="NFKL7sT9jwqzwIPx9qcK-45">
          <mxGeometry relative="1" as="geometry" />
        </mxCell>
        <mxCell id="NFKL7sT9jwqzwIPx9qcK-41" value="arrayThreeSymbol" style="shape=document;whiteSpace=wrap;html=1;boundedLbl=1;" vertex="1" parent="WIyWlLk6GJQsqaUBKTNV-1">
          <mxGeometry x="990" y="770" width="120" height="80" as="geometry" />
        </mxCell>
        <mxCell id="NFKL7sT9jwqzwIPx9qcK-43" value="YES" style="text;html=1;align=center;verticalAlign=middle;resizable=0;points=[];autosize=1;strokeColor=none;fillColor=none;" vertex="1" parent="WIyWlLk6GJQsqaUBKTNV-1">
          <mxGeometry x="622.5" y="938" width="50" height="30" as="geometry" />
        </mxCell>
        <mxCell id="NFKL7sT9jwqzwIPx9qcK-44" value="NO" style="text;html=1;align=center;verticalAlign=middle;resizable=0;points=[];autosize=1;strokeColor=none;fillColor=none;" vertex="1" parent="WIyWlLk6GJQsqaUBKTNV-1">
          <mxGeometry x="840" y="938" width="40" height="30" as="geometry" />
        </mxCell>
        <mxCell id="NFKL7sT9jwqzwIPx9qcK-45" value="END" style="ellipse;whiteSpace=wrap;html=1;" vertex="1" parent="WIyWlLk6GJQsqaUBKTNV-1">
          <mxGeometry x="990" y="913" width="120" height="80" as="geometry" />
        </mxCell>
      </root>
    </mxGraphModel>
  </diagram>
</mxfile>
